# xmcd
#
# Track frame offsets:
#	150
#	4500
#	15775
#	25675
#	38025
#	49125
#	58650
#	69450
#	79500
#	91225
#	101950
#	112650
#	123600
#	133750
#	140950
#	155850
#
# Disc length: 2236 seconds
#
# Revision: 1
# Processed by: cddbd v1.5.1PL0 Copyright (c) Steve Scherf et al.
# Submitted via: audiograbber 1.83.01
#
DISCID=cd08ba10
DTITLE=Whole Lotta Shakin' - Rock 'n' Roll Party
DYEAR=1999
DGENRE=Blues
TTITLE0=Jerry Lee Lewis - Whole Lotta Shakin' Goin' On
TTITLE1=Carl Mann - Mona Lisa
TTITLE2=Bill Haley and His Comets - Rock Around The Clock
TTITLE3=Gene Vincent - Be Bop A Lula
TTITLE4=Chuck Berry - Rock 'n' Roll Music
TTITLE5=Swinging Blue Jeans - Hippy Hippy Shake
TTITLE6=The Coasters - Charlie Brown
TTITLE7=Roy Orbison - Ooby Dooby
TTITLE8=Troy Shondell - This Time
TTITLE9=Little Richard - Tutti Frutti
TTITLE10=Bill Justis - Raunchy
TTITLE11=Sonny Burgess - We Wanna Boogie
TTITLE12=Carl Perkins - Blue Suede Shoes
TTITLE13=Billy Lee Riley - Saturday Night Fish Fry
TTITLE14=Rick Nelson - Boppin' The Blues
TTITLE15=Warren Smith - Red Cadillac And A Black Moustache
EXTD=
EXTT0=
EXTT1=
EXTT2=
EXTT3=
EXTT4=
EXTT5=
EXTT6=
EXTT7=
EXTT8=
EXTT9=
EXTT10=
EXTT11=
EXTT12=
EXTT13=
EXTT14=
EXTT15=
PLAYORDER=
